<svg width="192" height="65" viewBox="0 0 192 65" fill="none" xmlns="http://www.w3.org/2000/svg">
<rect x="0.5" y="1.08984" width="191" height="63" rx="6.5" stroke="#181D27"/>
<path d="M130.441 31.3114V34.977H128.144V37.3809H130.441V45.5489C130.441 48.338 131.703 49.4536 134.877 49.4536C135.435 49.4536 135.966 49.3872 136.431 49.3075V46.9302C136.033 46.97 135.781 46.9966 135.342 46.9966C133.921 46.9966 133.297 46.3325 133.297 44.8184V37.3809H136.431V34.977H133.297V31.3114H130.441Z" fill="black"/>
<path d="M144.517 49.6528C148.741 49.6528 151.331 46.8239 151.331 42.1356C151.331 37.4739 148.728 34.6317 144.517 34.6317C140.294 34.6317 137.691 37.4739 137.691 42.1356C137.691 46.8239 140.281 49.6528 144.517 49.6528ZM144.517 47.1161C142.034 47.1161 140.639 45.2966 140.639 42.1356C140.639 39.0013 142.034 37.1684 144.517 37.1684C146.988 37.1684 148.396 39.0013 148.396 42.1356C148.396 45.2833 146.988 47.1161 144.517 47.1161Z" fill="black"/>
<path d="M153.547 49.3739H156.402V40.8341C156.402 38.802 157.929 37.4341 160.094 37.4341C160.599 37.4341 161.449 37.527 161.688 37.6067V34.7911C161.382 34.7114 160.838 34.6716 160.413 34.6716C158.527 34.6716 156.92 35.7075 156.508 37.1286H156.296V34.9106H153.547V49.3739Z" fill="black"/>
<path d="M168.778 37.0622C170.89 37.0622 172.271 38.5364 172.337 40.8075H165.033C165.192 38.5497 166.666 37.0622 168.778 37.0622ZM172.324 45.4692C171.793 46.5981 170.611 47.2224 168.884 47.2224C166.6 47.2224 165.126 45.6153 165.033 43.0786V42.9192H175.246V41.9231C175.246 37.3809 172.816 34.6317 168.791 34.6317C164.714 34.6317 162.124 37.5669 162.124 42.1888C162.124 46.8106 164.661 49.6528 168.805 49.6528C172.112 49.6528 174.423 48.0591 175.073 45.4692H172.324Z" fill="black"/>
<path d="M111.716 44.0329C111.936 47.5844 114.896 49.8557 119.301 49.8557C124.008 49.8557 126.954 47.4743 126.954 43.6749C126.954 40.6878 125.275 39.0359 121.2 38.0861L119.011 37.5492C116.424 36.9436 115.377 36.1314 115.377 34.7135C115.377 32.924 117.002 31.7539 119.438 31.7539C121.751 31.7539 123.348 32.8965 123.637 34.7273H126.638C126.459 31.3822 123.513 29.0283 119.48 29.0283C115.143 29.0283 112.253 31.3822 112.253 34.92C112.253 37.8383 113.891 39.5728 117.483 40.4125L120.044 41.0319C122.673 41.6514 123.829 42.5599 123.829 44.0741C123.829 45.8361 122.012 47.1164 119.535 47.1164C116.878 47.1164 115.033 45.9187 114.772 44.0329H111.716Z" fill="black"/>
<path d="M82.136 34.6716C80.1703 34.6716 78.4703 35.6544 77.5938 37.3013H77.3813V34.9106H74.6321V54.1817H77.4875V47.1825H77.7133C78.4703 48.7099 80.1039 49.613 82.1625 49.613C85.8149 49.613 88.1391 46.7309 88.1391 42.1356C88.1391 37.5403 85.8149 34.6716 82.136 34.6716ZM81.3258 47.0497C78.9352 47.0497 77.4344 45.1638 77.4344 42.1489C77.4344 39.1208 78.9352 37.2349 81.3391 37.2349C83.7563 37.2349 85.2039 39.0809 85.2039 42.1356C85.2039 45.2036 83.7563 47.0497 81.3258 47.0497Z" fill="black"/>
<path d="M98.1308 34.6716C96.1652 34.6716 94.4652 35.6544 93.5887 37.3013H93.3762V34.9106H90.6269V54.1817H93.4824V47.1825H93.7082C94.4652 48.7099 96.0988 49.613 98.1574 49.613C101.81 49.613 104.134 46.7309 104.134 42.1356C104.134 37.5403 101.81 34.6716 98.1308 34.6716ZM97.3207 47.0497C94.9301 47.0497 93.4293 45.1638 93.4293 42.1489C93.4293 39.1208 94.9301 37.2349 97.334 37.2349C99.7512 37.2349 101.199 39.0809 101.199 42.1356C101.199 45.2036 99.7512 47.0497 97.3207 47.0497Z" fill="black"/>
<path d="M69.5089 49.3739H72.7851L65.6132 29.5101H62.2957L55.1238 49.3739H58.2899L60.1207 44.1017H67.6918L69.5089 49.3739ZM63.7961 33.1167H64.0301L66.9072 41.5137H60.9053L63.7961 33.1167Z" fill="black"/>
<path d="M57.0417 14.5271V24.1096H60.5015C63.357 24.1096 65.0105 22.3498 65.0105 19.2885C65.0105 16.2736 63.3437 14.5271 60.5015 14.5271H57.0417ZM58.5292 15.8818H60.3355C62.321 15.8818 63.4964 17.1436 63.4964 19.3084C63.4964 21.5064 62.341 22.7549 60.3355 22.7549H58.5292V15.8818Z" fill="black"/>
<path d="M70.0746 24.249C72.1864 24.249 73.4813 22.8346 73.4813 20.4904C73.4813 18.1596 72.1797 16.7385 70.0746 16.7385C67.9629 16.7385 66.6614 18.1596 66.6614 20.4904C66.6614 22.8346 67.9563 24.249 70.0746 24.249ZM70.0746 22.9807C68.8328 22.9807 68.1356 22.0709 68.1356 20.4904C68.1356 18.9232 68.8328 18.0068 70.0746 18.0068C71.3098 18.0068 72.0137 18.9232 72.0137 20.4904C72.0137 22.0643 71.3098 22.9807 70.0746 22.9807Z" fill="black"/>
<path d="M84.5087 16.8779H83.081L81.7927 22.3963H81.6798L80.1923 16.8779H78.8243L77.3368 22.3963H77.2306L75.9357 16.8779H74.488L76.4802 24.1096H77.9478L79.4353 18.7838H79.5482L81.0423 24.1096H82.5232L84.5087 16.8779Z" fill="black"/>
<path d="M86.1529 24.1096H87.5807V19.8795C87.5807 18.7506 88.2514 18.0467 89.3072 18.0467C90.3631 18.0467 90.8678 18.6244 90.8678 19.7865V24.1096H92.2955V19.4279C92.2955 17.708 91.4057 16.7385 89.792 16.7385C88.7029 16.7385 87.9857 17.2232 87.6338 18.0268H87.5275V16.8779H86.1529V24.1096Z" fill="black"/>
<path d="M94.544 24.1096H95.9718V14.0557H94.544V24.1096Z" fill="black"/>
<path d="M101.341 24.249C103.453 24.249 104.748 22.8346 104.748 20.4904C104.748 18.1596 103.446 16.7385 101.341 16.7385C99.2296 16.7385 97.9281 18.1596 97.9281 20.4904C97.9281 22.8346 99.223 24.249 101.341 24.249ZM101.341 22.9807C100.1 22.9807 99.4023 22.0709 99.4023 20.4904C99.4023 18.9232 100.1 18.0068 101.341 18.0068C102.577 18.0068 103.28 18.9232 103.28 20.4904C103.28 22.0643 102.577 22.9807 101.341 22.9807Z" fill="black"/>
<path d="M109.002 23.0271C108.225 23.0271 107.661 22.6486 107.661 21.9979C107.661 21.3604 108.112 21.0217 109.108 20.9553L110.875 20.8424V21.4467C110.875 22.3432 110.078 23.0271 109.002 23.0271ZM108.637 24.2291C109.586 24.2291 110.377 23.8174 110.808 23.0936H110.921V24.1096H112.296V19.1689C112.296 17.6416 111.273 16.7385 109.46 16.7385C107.82 16.7385 106.651 17.5354 106.505 18.7771H107.886C108.046 18.2658 108.597 17.9736 109.394 17.9736C110.37 17.9736 110.875 18.4053 110.875 19.1689V19.7932L108.916 19.9061C107.196 20.0123 106.226 20.7627 106.226 22.0643C106.226 23.3857 107.242 24.2291 108.637 24.2291Z" fill="black"/>
<path d="M117.141 24.2291C118.137 24.2291 118.98 23.7576 119.412 22.9674H119.525V24.1096H120.893V14.0557H119.465V18.0268H119.359C118.967 17.2299 118.13 16.7584 117.141 16.7584C115.315 16.7584 114.139 18.2061 114.139 20.4904C114.139 22.7814 115.301 24.2291 117.141 24.2291ZM117.546 18.04C118.741 18.04 119.492 18.9896 119.492 20.4971C119.492 22.0111 118.748 22.9475 117.546 22.9475C116.337 22.9475 115.613 22.0244 115.613 20.4904C115.613 18.9697 116.344 18.04 117.546 18.04Z" fill="black"/>
<path d="M130.151 24.249C132.263 24.249 133.558 22.8346 133.558 20.4904C133.558 18.1596 132.256 16.7385 130.151 16.7385C128.039 16.7385 126.738 18.1596 126.738 20.4904C126.738 22.8346 128.033 24.249 130.151 24.249ZM130.151 22.9807C128.909 22.9807 128.212 22.0709 128.212 20.4904C128.212 18.9232 128.909 18.0068 130.151 18.0068C131.386 18.0068 132.09 18.9232 132.09 20.4904C132.09 22.0643 131.386 22.9807 130.151 22.9807Z" fill="black"/>
<path d="M135.448 24.1096H136.875V19.8795C136.875 18.7506 137.546 18.0467 138.602 18.0467C139.658 18.0467 140.162 18.6244 140.162 19.7865V24.1096H141.59V19.4279C141.59 17.708 140.7 16.7385 139.087 16.7385C137.998 16.7385 137.28 17.2232 136.928 18.0268H136.822V16.8779H135.448V24.1096Z" fill="black"/>
<path d="M148.166 15.0783V16.9111H147.017V18.1131H148.166V22.1971C148.166 23.5916 148.797 24.1494 150.384 24.1494C150.663 24.1494 150.928 24.1162 151.161 24.0764V22.8877C150.961 22.9076 150.835 22.9209 150.616 22.9209C149.906 22.9209 149.593 22.5889 149.593 21.8318V18.1131H151.161V16.9111H149.593V15.0783H148.166Z" fill="black"/>
<path d="M153.077 24.1096H154.505V19.8861C154.505 18.7904 155.156 18.0533 156.324 18.0533C157.334 18.0533 157.872 18.6377 157.872 19.7932V24.1096H159.299V19.4412C159.299 17.7213 158.35 16.7451 156.809 16.7451C155.72 16.7451 154.956 17.2299 154.604 18.04H154.492V14.0557H153.077V24.1096Z" fill="black"/>
<path d="M164.45 17.9537C165.506 17.9537 166.196 18.6908 166.23 19.8264H162.577C162.657 18.6975 163.394 17.9537 164.45 17.9537ZM166.223 22.1572C165.957 22.7217 165.366 23.0338 164.503 23.0338C163.361 23.0338 162.624 22.2303 162.577 20.9619V20.8822H167.684V20.3842C167.684 18.1131 166.469 16.7385 164.457 16.7385C162.418 16.7385 161.123 18.2061 161.123 20.517C161.123 22.8279 162.391 24.249 164.463 24.249C166.117 24.249 167.272 23.4521 167.598 22.1572H166.223Z" fill="black"/>
<path d="M39.6303 33.0715C39.6649 30.3819 41.1094 27.837 43.4008 26.4282C41.9552 24.3637 39.534 23.0548 37.0149 22.976C34.3281 22.6939 31.7234 24.5837 30.3543 24.5837C28.9587 24.5837 26.8507 23.004 24.5807 23.0507C21.6219 23.1463 18.8635 24.8285 17.424 27.4153C14.3296 32.7727 16.6378 40.6464 19.6019 44.977C21.085 47.0975 22.8182 49.4663 25.0861 49.3823C27.3054 49.2902 28.1343 47.9671 30.8132 47.9671C33.4672 47.9671 34.2449 49.3823 36.5588 49.3289C38.9402 49.2902 40.4406 47.1989 41.8716 45.0582C42.9372 43.5473 43.7571 41.8773 44.3011 40.1102C41.5025 38.9266 39.6336 36.1102 39.6303 33.0715Z" fill="black"/>
<path d="M35.2596 20.128C36.5581 18.5692 37.1978 16.5657 37.0429 14.543C35.0591 14.7513 33.2267 15.6994 31.9107 17.1983C30.6239 18.6629 29.9542 20.6311 30.0808 22.5766C32.0652 22.597 34.0161 21.6746 35.2596 20.128Z" fill="black"/>
</svg>
