<svg width="216" height="65" viewBox="0 0 216 65" fill="none" xmlns="http://www.w3.org/2000/svg">
<rect x="0.5" y="1.08984" width="215" height="63" rx="4.5" stroke="#181D27"/>
<path d="M109.018 35.3916C105.254 35.3916 102.187 38.254 102.187 42.1964C102.187 46.1148 105.254 49.0012 109.018 49.0012C112.782 49.0012 115.85 46.1148 115.85 42.1964C115.848 38.254 112.781 35.3916 109.018 35.3916ZM109.018 46.3228C106.955 46.3228 105.178 44.622 105.178 42.198C105.178 39.7484 106.957 38.0732 109.018 38.0732C111.08 38.0732 112.858 39.7484 112.858 42.198C112.858 44.6204 111.08 46.3228 109.018 46.3228ZM94.1152 35.3916C90.352 35.3916 87.2848 38.254 87.2848 42.1964C87.2848 46.1148 90.352 49.0012 94.1152 49.0012C97.88 49.0012 100.947 46.1148 100.947 42.1964C100.947 38.254 97.88 35.3916 94.1152 35.3916ZM94.1152 46.3228C92.0528 46.3228 90.2752 44.622 90.2752 42.198C90.2752 39.7484 92.0544 38.0732 94.1152 38.0732C96.1776 38.0732 97.9552 39.7484 97.9552 42.198C97.9568 44.6204 96.1776 46.3228 94.1152 46.3228ZM76.3904 37.4812V40.3676H83.2992C83.0928 41.9916 82.552 43.1772 81.7264 44.0012C80.7216 45.006 79.1488 46.1148 76.3904 46.1148C72.1376 46.1148 68.8128 42.686 68.8128 38.4332C68.8128 34.1804 72.1376 30.7516 76.3904 30.7516C78.6848 30.7516 80.36 31.654 81.5968 32.814L83.6336 30.7772C81.9056 29.1276 79.6128 27.8652 76.3904 27.8652C70.5648 27.8652 65.6672 32.6076 65.6672 38.4332C65.6672 44.2588 70.5648 49.0012 76.3904 49.0012C79.5344 49.0012 81.9072 47.9692 83.7616 46.0364C85.6688 44.1292 86.2624 41.4476 86.2624 39.2828C86.2624 38.614 86.2112 37.9948 86.1072 37.4796H76.3904V37.4812ZM148.883 39.7228C148.317 38.2028 146.589 35.3916 143.058 35.3916C139.552 35.3916 136.638 38.15 136.638 42.1964C136.638 46.0108 139.526 49.0012 143.392 49.0012C146.51 49.0012 148.315 47.094 149.064 45.9852L146.744 44.438C145.971 45.5724 144.914 46.3196 143.392 46.3196C141.872 46.3196 140.789 45.6236 140.093 44.2572L149.192 40.494L148.883 39.7228ZM139.603 41.9916C139.526 39.3612 141.64 38.022 143.162 38.022C144.347 38.022 145.352 38.6156 145.688 39.4652L139.603 41.9916ZM132.206 48.59H135.195V28.5884H132.206V48.59ZM127.307 36.9132H127.205C126.534 36.1132 125.245 35.3916 123.622 35.3916C120.219 35.3916 117.101 38.382 117.101 42.2236C117.101 46.038 120.219 49.0028 123.622 49.0028C125.246 49.0028 126.534 48.2812 127.205 47.4572H127.307V48.4364C127.307 51.0396 125.915 52.4316 123.674 52.4316C121.843 52.4316 120.709 51.118 120.245 50.0092L117.642 51.0924C118.389 52.8956 120.373 55.1132 123.674 55.1132C127.179 55.1132 130.144 53.0508 130.144 48.0236V35.806H127.309V36.9132H127.307ZM123.88 46.3228C121.818 46.3228 120.091 44.5948 120.091 42.2236C120.091 39.8252 121.818 38.0732 123.88 38.0732C125.915 38.0732 127.514 39.8252 127.514 42.2236C127.514 44.5948 125.915 46.3228 123.88 46.3228ZM162.89 28.5884H155.736V48.59H158.72V41.0124H162.888C166.197 41.0124 169.451 38.6172 169.451 34.8012C169.451 30.9852 166.198 28.5884 162.89 28.5884ZM162.966 38.2284H158.72V31.3724H162.966C165.198 31.3724 166.466 33.2204 166.466 34.8012C166.466 36.35 165.198 38.2284 162.966 38.2284ZM181.418 35.3564C179.256 35.3564 177.018 36.3084 176.091 38.4188L178.741 39.5244C179.307 38.4188 180.363 38.0572 181.469 38.0572C183.013 38.0572 184.582 38.9836 184.608 40.63V40.8364C184.067 40.5276 182.909 40.0652 181.494 40.0652C178.638 40.0652 175.73 41.6348 175.73 44.5676C175.73 47.2444 178.072 48.9676 180.696 48.9676C182.702 48.9676 183.81 48.0668 184.504 47.0108H184.606V48.5548H187.49V40.886C187.491 37.3372 184.838 35.3564 181.418 35.3564ZM181.056 46.318C180.08 46.318 178.715 45.8284 178.715 44.6188C178.715 43.0748 180.414 42.4828 181.882 42.4828C183.192 42.4828 183.811 42.766 184.608 43.1516C184.376 45.006 182.781 46.318 181.056 46.318ZM197.989 35.7932L194.566 44.4652H194.464L190.912 35.7932H187.696L193.022 47.9132L189.986 54.6556H193.099L201.309 35.7932H197.989ZM171.099 48.59H174.083V28.5884H171.099V48.59Z" fill="black"/>
<path d="M75.8689 16.9789C75.8689 18.3197 75.4721 19.3869 74.6769 20.1837C73.7745 21.1309 72.5969 21.6045 71.1505 21.6045C69.7649 21.6045 68.5857 21.1245 67.6177 20.1645C66.6481 19.2029 66.1633 18.0125 66.1633 16.5917C66.1633 15.1693 66.6481 13.9789 67.6177 13.0189C68.5857 12.0573 69.7649 11.5773 71.1505 11.5773C71.8385 11.5773 72.4961 11.7117 73.1201 11.9789C73.7457 12.2477 74.2465 12.6045 74.6209 13.0509L73.7777 13.8957C73.1425 13.1357 72.2673 12.7565 71.1489 12.7565C70.1377 12.7565 69.2641 13.1117 68.5265 13.8221C67.7889 14.5325 67.4209 15.4557 67.4209 16.5901C67.4209 17.7245 67.7889 18.6477 68.5265 19.3581C69.2641 20.0685 70.1377 20.4237 71.1489 20.4237C72.2209 20.4237 73.1153 20.0669 73.8305 19.3517C74.2945 18.8861 74.5633 18.2381 74.6353 17.4077H71.1489V16.2541H75.8001C75.8481 16.5053 75.8689 16.7469 75.8689 16.9789Z" fill="black"/>
<path d="M83.2451 12.9694H78.8739V16.0126H82.8163V17.1662H78.8739V20.2094H83.2451V21.3902H77.6403V11.7902H83.2451V12.9694Z" fill="black"/>
<path d="M88.4465 21.3902H87.2129V12.9694H84.5313V11.7902H91.1281V12.9694H88.4465V21.3902Z" fill="black"/>
<path d="M95.9008 21.3902V11.7902H97.1344V21.3902H95.9008Z" fill="black"/>
<path d="M102.605 21.3902H101.371V12.9694H98.6899V11.7902H105.287V12.9694H102.605V21.3902Z" fill="black"/>
<path d="M117.774 20.1502C116.83 21.1198 115.658 21.6046 114.254 21.6046C112.851 21.6046 111.678 21.1198 110.736 20.1502C109.792 19.1806 109.322 17.9934 109.322 16.5902C109.322 15.187 109.792 13.9998 110.736 13.0302C111.678 12.0606 112.851 11.5742 114.254 11.5742C115.65 11.5742 116.821 12.0622 117.768 13.0366C118.715 14.011 119.189 15.195 119.189 16.5902C119.189 17.9934 118.717 19.1806 117.774 20.1502ZM111.646 19.3454C112.357 20.0654 113.226 20.4238 114.254 20.4238C115.283 20.4238 116.154 20.0638 116.862 19.3454C117.573 18.6254 117.93 17.707 117.93 16.5902C117.93 15.4734 117.573 14.555 116.862 13.835C116.154 13.115 115.283 12.7566 114.254 12.7566C113.226 12.7566 112.357 13.1166 111.646 13.835C110.938 14.555 110.581 15.4734 110.581 16.5902C110.581 17.707 110.938 18.6254 111.646 19.3454Z" fill="black"/>
<path d="M120.92 21.3902V11.7902H122.421L127.086 19.2574H127.139L127.086 17.4078V11.7902H128.32V21.3902H127.032L122.15 13.5598H122.098L122.15 15.4094V21.3902H120.92Z" fill="black"/>
<path d="M75.8689 16.9789C75.8689 18.3197 75.4721 19.3869 74.6769 20.1837C73.7745 21.1309 72.5969 21.6045 71.1505 21.6045C69.7649 21.6045 68.5857 21.1245 67.6177 20.1645C66.6481 19.2029 66.1633 18.0125 66.1633 16.5917C66.1633 15.1693 66.6481 13.9789 67.6177 13.0189C68.5857 12.0573 69.7649 11.5773 71.1505 11.5773C71.8385 11.5773 72.4961 11.7117 73.1201 11.9789C73.7457 12.2477 74.2465 12.6045 74.6209 13.0509L73.7777 13.8957C73.1425 13.1357 72.2673 12.7565 71.1489 12.7565C70.1377 12.7565 69.2641 13.1117 68.5265 13.8221C67.7889 14.5325 67.4209 15.4557 67.4209 16.5901C67.4209 17.7245 67.7889 18.6477 68.5265 19.3581C69.2641 20.0685 70.1377 20.4237 71.1489 20.4237C72.2209 20.4237 73.1153 20.0669 73.8305 19.3517C74.2945 18.8861 74.5633 18.2381 74.6353 17.4077H71.1489V16.2541H75.8001C75.8481 16.5053 75.8689 16.7469 75.8689 16.9789Z" stroke="black" stroke-width="0.2" stroke-miterlimit="10"/>
<path d="M83.2451 12.9694H78.8739V16.0126H82.8163V17.1662H78.8739V20.2094H83.2451V21.3902H77.6403V11.7902H83.2451V12.9694Z" stroke="black" stroke-width="0.2" stroke-miterlimit="10"/>
<path d="M88.4465 21.3902H87.2129V12.9694H84.5313V11.7902H91.1281V12.9694H88.4465V21.3902Z" stroke="black" stroke-width="0.2" stroke-miterlimit="10"/>
<path d="M95.9008 21.3902V11.7902H97.1344V21.3902H95.9008Z" stroke="black" stroke-width="0.2" stroke-miterlimit="10"/>
<path d="M102.605 21.3902H101.371V12.9694H98.6899V11.7902H105.287V12.9694H102.605V21.3902Z" stroke="black" stroke-width="0.2" stroke-miterlimit="10"/>
<path d="M117.774 20.1502C116.83 21.1198 115.658 21.6046 114.254 21.6046C112.851 21.6046 111.678 21.1198 110.736 20.1502C109.792 19.1806 109.322 17.9934 109.322 16.5902C109.322 15.187 109.792 13.9998 110.736 13.0302C111.678 12.0606 112.851 11.5742 114.254 11.5742C115.65 11.5742 116.821 12.0622 117.768 13.0366C118.715 14.011 119.189 15.195 119.189 16.5902C119.189 17.9934 118.717 19.1806 117.774 20.1502ZM111.646 19.3454C112.357 20.0654 113.226 20.4238 114.254 20.4238C115.283 20.4238 116.154 20.0638 116.862 19.3454C117.573 18.6254 117.93 17.707 117.93 16.5902C117.93 15.4734 117.573 14.555 116.862 13.835C116.154 13.115 115.283 12.7566 114.254 12.7566C113.226 12.7566 112.357 13.1166 111.646 13.835C110.938 14.555 110.581 15.4734 110.581 16.5902C110.581 17.707 110.938 18.6254 111.646 19.3454Z" stroke="black" stroke-width="0.2" stroke-miterlimit="10"/>
<path d="M120.92 21.3902V11.7902H122.421L127.086 19.2574H127.139L127.086 17.4078V11.7902H128.32V21.3902H127.032L122.15 13.5598H122.098L122.15 15.4094V21.3902H120.92Z" stroke="black" stroke-width="0.2" stroke-miterlimit="10"/>
<path fill-rule="evenodd" clip-rule="evenodd" d="M16.394 13.0561C16.1148 13.5274 15.9568 14.1484 15.9568 14.8989V50.2845C15.9568 51.0368 16.115 51.6574 16.3946 52.1284L35.929 32.5911L16.394 13.0561ZM17.0845 52.8527C17.8253 53.3218 18.8695 53.2855 20.0224 52.6318L42.9443 39.6064L36.6361 33.2982L17.0845 52.8527ZM43.8471 39.095L51.224 34.9037C53.4592 33.6317 53.4592 31.5534 51.224 30.2829L43.8439 26.0894L37.3432 32.5911L43.8471 39.095ZM42.9422 25.577L20.0224 12.5533C18.8695 11.8982 17.8252 11.8629 17.0845 12.3323L36.6361 31.884L42.9422 25.577Z" fill="black"/>
</svg>
